<svg id="Livello_1" data-name="Livello 1" xmlns="http://www.w3.org/2000/svg" width="1.05in" height="1in" viewBox="0 0 75.85 72"><g id="Livello_3" data-name="Livello 3"><path d="M72,72H0V0H72ZM4.46,2.62A2.15,2.15,0,1,0,6.6,4.77,2.15,2.15,0,0,0,4.46,2.62Zm0,6.92A2.15,2.15,0,1,0,6.6,11.68,2.14,2.14,0,0,0,4.46,9.54Zm0,7.4A2.15,2.15,0,1,0,6.6,19.09,2.15,2.15,0,0,0,4.46,16.94Zm0,21.32A2.15,2.15,0,1,0,6.6,40.41,2.15,2.15,0,0,0,4.46,38.26Zm0,7.2A2.15,2.15,0,1,0,6.6,47.61,2.15,2.15,0,0,0,4.46,45.46Z" style="fill:#e62c2e"/></g><g id="copper1"><g id="copper1-2" data-name="copper1"><circle id="connector1pin" cx="4.46" cy="4.78" r="1.58" style="fill:none;stroke:#9a916c;stroke-width:1.1519999504089355px"/><circle id="connector2pin" cx="4.46" cy="11.68" r="1.58" style="fill:none;stroke:#9a916c;stroke-width:1.1519999504089355px"/><circle id="connector3pin" cx="4.46" cy="19.09" r="1.58" style="fill:none;stroke:#9a916c;stroke-width:1.1519999504089355px"/><circle id="connector6pin" cx="4.46" cy="40.41" r="1.58" style="fill:none;stroke:#9a916c;stroke-width:1.1519999504089355px"/><circle id="connector7pin" cx="4.46" cy="47.61" r="1.58" style="fill:none;stroke:#9a916c;stroke-width:1.1519999504089355px"/></g></g><g id="Livello_2" data-name="Livello 2"><rect x="33.21" y="6.36" width="42.64" height="17.66"/><rect x="24.15" y="26.32" width="4.21" height="8.3" style="fill:#666"/><rect x="52.43" y="35.4" width="4.21" height="8.3" style="fill:#666"/><rect x="60.21" y="48.15" width="4.21" height="8.3" style="fill:#666"/><rect x="52.43" y="48.15" width="4.21" height="8.3" style="fill:#666"/><rect x="52.43" y="60.9" width="4.21" height="8.3" style="fill:#666"/><rect x="60.21" y="60.9" width="4.21" height="8.3" style="fill:#666"/><rect x="9.62" y="60.83" width="4.21" height="8.3" style="fill:#666"/><rect x="16.81" y="60.83" width="4.21" height="8.3" style="fill:#666"/><rect x="24.21" y="60.83" width="4.21" height="8.3" style="fill:#666"/><rect x="16.74" y="26.32" width="4.21" height="8.3" style="fill:#666"/><rect x="9.62" y="26.32" width="4.21" height="8.3" style="fill:#666"/><rect x="18.28" y="42.55" width="13.79" height="12.36"/><rect x="40.36" y="45.46" width="8.18" height="8.18"/><rect x="33.21" y="27.98" width="8.74" height="8.74" style="fill:#999"/><rect x="31.17" y="27.98" width="2.04" height="2.49" style="fill:gray"/><rect x="31.17" y="33.98" width="2.04" height="2.74" style="fill:gray"/><rect x="41.96" y="30.47" width="2.49" height="4.15" style="fill:gray"/><rect x="25.17" y="14.45" width="7.85" height="7.85" style="fill:gray"/><rect x="59.13" y="24.02" width="5.3" height="6.45" style="fill:gray"/><rect x="63.85" y="0.85" width="6.77" height="5.51" style="fill:gray"/><text transform="translate(7.58 6.91)" style="font-size:5px;font-family:OCRA">+Vs</text><text transform="translate(8.26 21.24)" style="font-size:5px;font-family:OCRA">-Vs</text><text transform="translate(7.58 42.55)" style="font-size:5px;font-family:OCRA">SIG</text><text transform="translate(8.14 49.54)" style="font-size:5px;font-family:OCRA">GND</text><text transform="translate(8.26 13.27)" style="font-size:5px;font-family:OCRA">GND</text></g></svg>